<?xml version="1.0" encoding="iso-8859-1"?>
<!-- Generator: Adobe Illustrator 19.0.0, SVG Export Plug-In . SVG Version: 6.00 Build 0)  -->
<svg version="1.1" id="Layer_1" xmlns="http://www.w3.org/2000/svg" xmlns:xlink="http://www.w3.org/1999/xlink" x="0px" y="0px"
	 viewBox="0 0 512.001 512.001" style="enable-background:new 0 0 512.001 512.001;" xml:space="preserve" fill='white'>
<g>
	<g>
		<path d="M472.033,443.914l-45.848-125.978c-35.456,44.84-88.078,75.508-147.959,81.626l36.926,101.454
			c2.304,6.342,8.206,10.674,14.957,10.968c0.25,0.011,0.489,0.017,0.728,0.017c6.468,0,12.38-3.744,15.131-9.641l32.858-70.462
			l70.468,32.858c6.087,2.858,13.348,1.744,18.337-2.82C472.61,457.375,474.348,450.262,472.033,443.914z"/>
	</g>
</g>
<g>
	<g>
		<path d="M85.816,317.936L39.968,443.913c-2.315,6.348-0.577,13.462,4.402,18.021c5,4.566,12.239,5.68,18.337,2.82l70.468-32.858
			l32.858,70.462c2.75,5.902,8.663,9.641,15.131,9.641c0.239,0,0.479-0.006,0.728-0.017c6.749-0.294,12.652-4.625,14.957-10.968
			l36.926-101.454C173.895,393.443,121.272,362.775,85.816,317.936z"/>
	</g>
</g>
<g>
	<g>
		<path d="M256.001,0C154.739,0,72.348,82.386,72.348,183.652s82.391,183.652,183.652,183.652s183.652-82.386,183.652-183.652
			S357.262,0,256.001,0z M289.392,267.13h-66.783c-9.217,0-16.696-7.473-16.696-16.696c0-9.223,7.479-16.696,16.696-16.696h16.696
			V133.565h-16.696c-9.217,0-16.696-7.473-16.696-16.696c0-9.223,7.479-16.696,16.696-16.696h33.391
			c9.217,0,16.696,7.473,16.696,16.696v116.87h16.696c9.217,0,16.696,7.473,16.696,16.696
			C306.088,259.657,298.609,267.13,289.392,267.13z"/>
	</g>
</g>
<g>
</g>
<g>
</g>
<g>
</g>
<g>
</g>
<g>
</g>
<g>
</g>
<g>
</g>
<g>
</g>
<g>
</g>
<g>
</g>
<g>
</g>
<g>
</g>
<g>
</g>
<g>
</g>
<g>
</g>
</svg>
